<svg width="20" height="20" viewBox="0 0 20 20" fill="none" xmlns="http://www.w3.org/2000/svg">
<path d="M5.83301 16.667C6.75337 16.667 7.49982 17.4127 7.5 18.333C7.5 19.2535 6.75348 20 5.83301 20C4.91268 19.9998 4.16699 19.2534 4.16699 18.333C4.16717 17.4128 4.91279 16.6672 5.83301 16.667ZM14.167 16.667C15.0872 16.6672 15.8328 17.4128 15.833 18.333C15.833 19.2534 15.0873 19.9998 14.167 20C13.2465 20 12.5 19.2535 12.5 18.333C12.5002 17.4127 13.2466 16.667 14.167 16.667ZM1.01855 0C1.63061 0.000338903 2.22137 0.22508 2.67871 0.631836C3.13601 1.03861 3.42828 1.59922 3.5 2.20703L3.53516 2.5H17.0088C17.3748 2.49962 17.7368 2.57933 18.0684 2.73438C18.4 2.88949 18.6934 3.1162 18.9277 3.39746C19.1625 3.67793 19.3322 4.0068 19.4258 4.36035C19.5194 4.71404 19.534 5.08434 19.4688 5.44434L18.8154 9.07227C18.6421 10.0336 18.1362 10.9038 17.3867 11.5303C16.6371 12.1568 15.6908 12.5001 14.7139 12.5H4.78125C4.95318 12.9862 5.27075 13.4077 5.69141 13.7061C6.11213 14.0044 6.61507 14.1655 7.13086 14.167H15.833C16.054 14.167 16.2666 14.2549 16.4229 14.4111C16.5789 14.5674 16.667 14.7791 16.667 15C16.667 15.2209 16.5789 15.4326 16.4229 15.5889C16.2666 15.7451 16.054 15.833 15.833 15.833H7.13086C6.10991 15.833 5.12419 15.4588 4.36133 14.7803C3.59848 14.1018 3.11123 13.1663 2.99219 12.1523L1.8457 2.40234C1.82179 2.1997 1.72475 2.01255 1.57227 1.87695C1.41979 1.74137 1.22259 1.66707 1.01855 1.66699H0.833008C0.612188 1.66691 0.400329 1.57895 0.244141 1.42285C0.0878603 1.26657 0 1.05402 0 0.833008C8.61737e-05 0.612111 0.0879371 0.400344 0.244141 0.244141C0.400344 0.087937 0.612111 8.6158e-05 0.833008 0H1.01855ZM4.51562 10.833H14.7139C15.3007 10.8339 15.8698 10.6289 16.3203 10.2529C16.7707 9.87693 17.0747 9.35382 17.1787 8.77637L17.833 5.14844C17.8548 5.02806 17.8498 4.90436 17.8184 4.78613C17.7869 4.66786 17.7301 4.55757 17.6514 4.46387C17.5726 4.37019 17.4743 4.29452 17.3633 4.24316C17.2523 4.19187 17.131 4.16633 17.0088 4.16699H3.73145L4.51562 10.833Z" fill="black"/>
</svg>
