<svg width="41" height="41" viewBox="0 0 41 41" fill="none" xmlns="http://www.w3.org/2000/svg">
<path d="M13.1084 3.36121H27.2252C32.6031 3.36121 36.9725 7.7307 36.9725 13.1085V27.2253C36.9725 29.8105 35.9456 32.2898 34.1176 34.1177C32.2896 35.9457 29.8104 36.9727 27.2252 36.9727H13.1084C7.73057 36.9727 3.36108 32.6032 3.36108 27.2253V13.1085C3.36108 10.5234 4.38803 8.04411 6.21601 6.21613C8.04399 4.38815 10.5233 3.36121 13.1084 3.36121ZM12.7723 6.72235C11.1677 6.72235 9.62886 7.35977 8.49425 8.49437C7.35965 9.62898 6.72223 11.1678 6.72223 12.7724V27.5615C6.72223 30.9058 9.42795 33.6115 12.7723 33.6115H27.5613C29.1659 33.6115 30.7048 32.9741 31.8394 31.8395C32.974 30.7049 33.6114 29.166 33.6114 27.5615V12.7724C33.6114 9.42807 30.9057 6.72235 27.5613 6.72235H12.7723ZM28.9898 9.24321C29.547 9.24321 30.0813 9.46454 30.4753 9.8585C30.8692 10.2525 31.0905 10.7868 31.0905 11.3439C31.0905 11.9011 30.8692 12.4354 30.4753 12.8294C30.0813 13.2233 29.547 13.4446 28.9898 13.4446C28.4327 13.4446 27.8983 13.2233 27.5044 12.8294C27.1104 12.4354 26.8891 11.9011 26.8891 11.3439C26.8891 10.7868 27.1104 10.2525 27.5044 9.8585C27.8983 9.46454 28.4327 9.24321 28.9898 9.24321ZM20.1668 11.7641C22.3954 11.7641 24.5327 12.6494 26.1085 14.2252C27.6844 15.8011 28.5697 17.9384 28.5697 20.1669C28.5697 22.3955 27.6844 24.5328 26.1085 26.1087C24.5327 27.6845 22.3954 28.5698 20.1668 28.5698C17.9382 28.5698 15.8009 27.6845 14.2251 26.1087C12.6492 24.5328 11.7639 22.3955 11.7639 20.1669C11.7639 17.9384 12.6492 15.8011 14.2251 14.2252C15.8009 12.6494 17.9382 11.7641 20.1668 11.7641ZM20.1668 15.1252C18.8297 15.1252 17.5473 15.6564 16.6018 16.6019C15.6563 17.5474 15.1251 18.8298 15.1251 20.1669C15.1251 21.5041 15.6563 22.7865 16.6018 23.732C17.5473 24.6775 18.8297 25.2087 20.1668 25.2087C21.504 25.2087 22.7863 24.6775 23.7318 23.732C24.6774 22.7865 25.2085 21.5041 25.2085 20.1669C25.2085 18.8298 24.6774 17.5474 23.7318 16.6019C22.7863 15.6564 21.504 15.1252 20.1668 15.1252Z" fill="#1E1E1E"/>
</svg>
