<svg width="52" height="52" viewBox="0 0 52 52" fill="none" xmlns="http://www.w3.org/2000/svg">
<path d="M42.4658 17.225H9.5342C9.36181 17.225 9.19648 17.1566 9.07458 17.0347C8.95268 16.9128 8.8842 16.7474 8.8842 16.575C8.8842 16.4027 8.95268 16.2373 9.07458 16.1154C9.19648 15.9935 9.36181 15.925 9.5342 15.925H42.4658C42.6382 15.925 42.8035 15.9935 42.9254 16.1154C43.0473 16.2373 43.1158 16.4027 43.1158 16.575C43.1158 16.7474 43.0473 16.9128 42.9254 17.0347C42.8035 17.1566 42.6382 17.225 42.4658 17.225ZM42.4658 26.65H9.5342C9.36181 26.65 9.19648 26.5816 9.07458 26.4597C8.95268 26.3378 8.8842 26.1724 8.8842 26C8.8842 25.8277 8.95268 25.6623 9.07458 25.5404C9.19648 25.4185 9.36181 25.35 9.5342 25.35H42.4658C42.6382 25.35 42.8035 25.4185 42.9254 25.5404C43.0473 25.6623 43.1158 25.8277 43.1158 26C43.1158 26.1724 43.0473 26.3378 42.9254 26.4597C42.8035 26.5816 42.6382 26.65 42.4658 26.65ZM42.4658 36.075H9.5342C9.36181 36.075 9.19648 36.0066 9.07458 35.8847C8.95268 35.7628 8.8842 35.5974 8.8842 35.425C8.8842 35.2527 8.95268 35.0873 9.07458 34.9654C9.19648 34.8435 9.36181 34.775 9.5342 34.775H42.4658C42.6382 34.775 42.8035 34.8435 42.9254 34.9654C43.0473 35.0873 43.1158 35.2527 43.1158 35.425C43.1158 35.5974 43.0473 35.7628 42.9254 35.8847C42.8035 36.0066 42.6382 36.075 42.4658 36.075Z" fill="black"/>
</svg>
