<svg width="20" height="20" viewBox="0 0 20 20" fill="none" xmlns="http://www.w3.org/2000/svg">
<path d="M9.99992 4.58325C10.1104 4.58325 10.2164 4.62715 10.2945 4.70529C10.3727 4.78343 10.4166 4.88941 10.4166 4.99992V9.58325H14.9999C15.1104 9.58325 15.2164 9.62715 15.2945 9.70529C15.3727 9.78343 15.4166 9.88941 15.4166 9.99992C15.4166 10.1104 15.3727 10.2164 15.2945 10.2945C15.2164 10.3727 15.1104 10.4166 14.9999 10.4166H10.4166V14.9999C10.4166 15.1104 10.3727 15.2164 10.2945 15.2945C10.2164 15.3727 10.1104 15.4166 9.99992 15.4166C9.88941 15.4166 9.78343 15.3727 9.70529 15.2945C9.62715 15.2164 9.58325 15.1104 9.58325 14.9999V10.4166H4.99992C4.88941 10.4166 4.78343 10.3727 4.70529 10.2945C4.62715 10.2164 4.58325 10.1104 4.58325 9.99992C4.58325 9.88941 4.62715 9.78343 4.70529 9.70529C4.78343 9.62715 4.88941 9.58325 4.99992 9.58325H9.58325V4.99992C9.58325 4.88941 9.62715 4.78343 9.70529 4.70529C9.78343 4.62715 9.88941 4.58325 9.99992 4.58325Z" fill="#1E1E1E"/>
</svg>
