<svg width="30" height="30" viewBox="0 0 30 30" fill="none" xmlns="http://www.w3.org/2000/svg">
<path d="M7.857 12.8574V16.4288M10.7141 12.8574V16.4288M13.5713 12.8574V17.8574M16.4284 12.8574V16.4288M19.2856 12.8574V16.4288M22.1427 12.8574V17.8574M4.99986 12.1431H24.9999C25.3787 12.1431 25.7421 12.2936 26.01 12.5615C26.2779 12.8294 26.4284 13.1928 26.4284 13.5716V19.2859C26.4284 19.6648 26.2779 20.0282 26.01 20.2961C25.7421 20.564 25.3787 20.7145 24.9999 20.7145H4.99986C4.62098 20.7145 4.25762 20.564 3.98971 20.2961C3.7218 20.0282 3.57129 19.6648 3.57129 19.2859V13.5716C3.57129 13.1928 3.7218 12.8294 3.98971 12.5615C4.25762 12.2936 4.62098 12.1431 4.99986 12.1431Z" stroke="black" stroke-width="1.14286" stroke-linecap="round" stroke-linejoin="round"/>
</svg>
