<svg width="41" height="41" viewBox="0 0 41 41" fill="none" xmlns="http://www.w3.org/2000/svg">
<path d="M14.285 11.764C14.285 8.98605 16.8059 5.04175 20.167 5.04175C23.5281 5.04175 26.049 8.98605 26.049 11.764M6.72241 11.764L8.17947 32.1712C8.24034 33.0204 8.62115 33.8148 9.24501 34.394C9.86887 34.9733 10.6893 35.2942 11.5406 35.2921H28.8102C29.6615 35.2942 30.4819 34.9733 31.1058 34.394C31.7296 33.8148 32.1105 33.0204 32.1713 32.1712L33.6284 11.764H6.73922H6.72241Z" stroke="#1E1E1E" stroke-width="2.5" stroke-linecap="round" stroke-linejoin="round"/>
<path d="M15.9656 28.5698C16.6597 29.3462 17.6461 30.2504 20.167 30.2504C22.6879 30.2504 24.3684 28.7429 24.3684 26.8892C24.3684 25.0356 22.6879 24.3684 20.167 23.5281C17.6461 22.6878 16.8059 21.0576 16.8059 20.1669C16.8059 18.3116 18.4864 16.8058 20.167 16.8058C21.8476 16.8058 22.6879 16.8058 24.3684 18.4864" stroke="#1E1E1E" stroke-width="2.5" stroke-linecap="round" stroke-linejoin="round"/>
</svg>
