<svg width="41" height="41" viewBox="0 0 41 41" fill="none" xmlns="http://www.w3.org/2000/svg">
<path fill-rule="evenodd" clip-rule="evenodd" d="M23.528 5.04175C23.9737 5.04175 24.4012 5.21881 24.7163 5.53398C25.0315 5.84914 25.2086 6.27661 25.2086 6.72232C25.2095 8.27168 25.7451 9.77325 26.7249 10.9735C27.7046 12.1737 29.0686 12.9991 30.5864 13.3102C31.0232 13.3993 31.4067 13.6583 31.6525 14.0302C31.8984 14.4021 31.9864 14.8564 31.8972 15.2932C31.8081 15.73 31.5491 16.1135 31.1772 16.3594C30.8053 16.6052 30.351 16.6932 29.9142 16.6041C28.1634 16.2452 26.5394 15.4274 25.2086 14.2345V28.5698C25.2086 30.2317 24.7157 31.8563 23.7924 33.2381C22.8691 34.62 21.5568 35.697 20.0213 36.333C18.4859 36.969 16.7964 37.1354 15.1664 36.8112C13.5364 36.4869 12.0391 35.6867 10.864 34.5115C9.68882 33.3363 8.88852 31.8391 8.56429 30.2091C8.24007 28.5791 8.40647 26.8896 9.04247 25.3541C9.67846 23.8187 10.7555 22.5064 12.1373 21.583C13.5192 20.6597 15.1438 20.1669 16.8057 20.1669C17.2514 20.1669 17.6789 20.344 17.994 20.6591C18.3092 20.9743 18.4863 21.4018 18.4863 21.8475C18.4863 22.2932 18.3092 22.7207 17.994 23.0358C17.6789 23.351 17.2514 23.528 16.8057 23.528C15.8085 23.528 14.8338 23.8237 14.0047 24.3777C13.1756 24.9317 12.5294 25.7191 12.1478 26.6404C11.7662 27.5616 11.6663 28.5754 11.8609 29.5534C12.0554 30.5314 12.5356 31.4297 13.2407 32.1348C13.9458 32.8399 14.8441 33.3201 15.8221 33.5146C16.8001 33.7091 17.8138 33.6093 18.7351 33.2277C19.6563 32.8461 20.4437 32.1999 20.9977 31.3708C21.5517 30.5417 21.8474 29.5669 21.8474 28.5698V6.72232C21.8474 6.27661 22.0245 5.84914 22.3396 5.53398C22.6548 5.21881 23.0823 5.04175 23.528 5.04175Z" fill="#1E1E1E"/>
</svg>
