<svg width="41" height="41" viewBox="0 0 41 41" fill="none" xmlns="http://www.w3.org/2000/svg">
<path d="M32.0148 8.25164C30.4738 6.69561 28.6386 5.46183 26.616 4.62221C24.5934 3.78259 22.4239 3.35392 20.234 3.36117C11.0581 3.36117 3.57951 10.8397 3.57951 20.0157C3.57951 22.9567 4.35258 25.8136 5.79787 28.3345L3.44507 36.9726L12.2681 34.6534C14.7049 35.9811 17.4442 36.6869 20.234 36.6869C29.4099 36.6869 36.8885 29.2084 36.8885 20.0325C36.8885 15.5789 35.1575 11.3943 32.0148 8.25164ZM20.234 33.8636C17.7467 33.8636 15.3099 33.1913 13.1756 31.9309L12.6714 31.6284L7.42803 33.0065L8.8229 27.8975L8.48679 27.3766C7.1046 25.1701 6.37082 22.6193 6.36927 20.0157C6.36927 12.3859 12.5874 6.16773 20.2172 6.16773C23.9144 6.16773 27.3932 7.61302 29.9981 10.2347C31.2882 11.5184 32.3105 13.0455 33.0057 14.7274C33.701 16.4093 34.0554 18.2125 34.0483 20.0325C34.0819 27.6623 27.8638 33.8636 20.234 33.8636ZM27.8302 23.5112C27.41 23.3096 25.3597 22.3012 24.99 22.15C24.6035 22.0155 24.3346 21.9483 24.0489 22.3516C23.7632 22.7718 22.9733 23.7129 22.738 23.9818C22.5028 24.2675 22.2507 24.3011 21.8305 24.0826C21.4104 23.881 20.0659 23.4272 18.4862 22.0155C17.2426 20.9064 16.4191 19.5451 16.167 19.1249C15.9317 18.7048 16.1334 18.4863 16.3519 18.2679C16.5367 18.083 16.772 17.7805 16.9737 17.5452C17.1754 17.3099 17.2594 17.1251 17.3938 16.8562C17.5283 16.5705 17.461 16.3352 17.3602 16.1335C17.2594 15.9319 16.4191 13.8816 16.083 13.0413C15.7469 12.2346 15.3939 12.3354 15.1419 12.3186H14.3352C14.0495 12.3186 13.6125 12.4195 13.226 12.8396C12.8563 13.2597 11.7807 14.2681 11.7807 16.3184C11.7807 18.3687 13.2764 20.3518 13.4781 20.6207C13.6798 20.9064 16.4191 25.1078 20.5869 26.906C21.5785 27.3429 22.3515 27.595 22.9565 27.7799C23.9481 28.0992 24.8556 28.0488 25.5782 27.948C26.3849 27.8303 28.0487 26.9396 28.3848 25.9649C28.7377 24.9901 28.7377 24.1667 28.6201 23.9818C28.5024 23.7969 28.2503 23.7129 27.8302 23.5112Z" fill="#1E1E1E"/>
</svg>
